<?xml version="1.0" encoding="utf-8"?>
<!-- Generator: Adobe Illustrator 24.2.3, SVG Export Plug-In . SVG Version: 6.00 Build 0)  -->
<svg version="1.1" id="Layer_1" xmlns="http://www.w3.org/2000/svg" xmlns:xlink="http://www.w3.org/1999/xlink" x="0px" y="0px"
	 viewBox="0 0 200 200" style="enable-background:new 0 0 200 200;" xml:space="preserve">
<style type="text/css">
	.st0{fill:#FFFFFF;}
	.st1{fill:#251C5F;}
</style>
<g>
	<path class="st0" d="M99.88,0.02c53.21-0.96,100.43,43.34,99.84,101.02c-0.58,56.98-48.24,99.96-101.71,98.95
		C45.21,198.99-1,154.96,0.05,97.91C1.05,43.29,46.25-0.84,99.88,0.02z M83.38,101.21c0,21.49,0,42.87,0,64.36
		c9.03-0.18,17.95,0.49,26.96-0.46c0-21.73,0-43.33,0-65.06c6.01,0,11.91,0,17.85,0c0.67-7.48,1.33-14.84,2.01-22.33
		c-6.72,0-13.32,0-19.86,0c0-4.94-0.09-9.77,0.04-14.58c0.07-2.68,1.2-3.77,3.88-3.84c4.68-0.13,9.37-0.08,14.05-0.1
		c0.46,0,0.92,0,1.4,0c0-8.07,0-16,0-24.09c-3.54,0-6.98,0.02-10.43,0c-6.07-0.05-12.13-0.1-18.1,1.28
		c-5.22,1.21-9.89,3.37-13.28,7.71c-3.2,4.09-4.38,8.89-4.52,13.95c-0.16,6.13-0.12,12.27-0.17,18.41c0,0.43,0,0.86,0,1.42
		c-4.49,0-8.86,0-13.22,0c0,7.6,0,15.07,0,22.61C74.44,100.72,78.81,100.96,83.38,101.21z"/>
	<path class="st1" d="M83.38,101.21c-4.57-0.25-8.95-0.49-13.4-0.73c0-7.54,0-15.01,0-22.61c4.36,0,8.73,0,13.22,0
		c0-0.56,0-0.99,0-1.42c0.05-6.14,0.01-12.28,0.17-18.41c0.14-5.06,1.31-9.86,4.52-13.95c3.4-4.34,8.06-6.5,13.28-7.71
		c5.97-1.38,12.03-1.33,18.1-1.28c3.45,0.03,6.89,0,10.43,0c0,8.09,0,16.02,0,24.09c-0.48,0-0.94,0-1.4,0
		c-4.68,0.02-9.37-0.03-14.05,0.1c-2.68,0.07-3.81,1.16-3.88,3.84c-0.13,4.82-0.04,9.64-0.04,14.58c6.55,0,13.14,0,19.86,0
		c-0.67,7.49-1.33,14.85-2.01,22.33c-5.94,0-11.84,0-17.85,0c0,21.73,0,43.33,0,65.06c-9,0.95-17.93,0.27-26.96,0.46
		C83.38,144.08,83.38,122.7,83.38,101.21z"/>
</g>
</svg>
