<?xml version="1.0" encoding="utf-8"?>
<!-- Generator: Adobe Illustrator 24.2.3, SVG Export Plug-In . SVG Version: 6.00 Build 0)  -->
<svg version="1.1" id="Layer_1" xmlns="http://www.w3.org/2000/svg" xmlns:xlink="http://www.w3.org/1999/xlink" x="0px" y="0px"
	 viewBox="0 0 200 200" style="enable-background:new 0 0 200 200;" xml:space="preserve">
<style type="text/css">
	.st0{fill:#FFFFFF;}
	.st1{fill:#251C5F;}
</style>
<g>
	<path class="st0" d="M100.01,199.99C44.79,200,0,155.23-0.01,100.01C-0.02,44.76,44.79-0.02,100.08,0
		c55.16,0.02,99.91,44.8,99.92,99.99C200.01,155.2,155.24,199.97,100.01,199.99z M99.91,160.28c5.85,0,11.69,0.06,17.54-0.02
		c5.38-0.07,10.78-0.1,16.07-1.28c13.6-3.03,22.11-11.29,25.34-24.89c1.32-5.58,1.37-11.29,1.41-16.98
		c0.07-11.51,0.07-23.02,0-34.52c-0.03-5.47-0.09-10.96-1.27-16.35c-2.85-12.88-10.49-21.32-23.28-24.94
		c-5.18-1.46-10.5-1.72-15.82-1.75c-13.35-0.09-26.71-0.08-40.06,0c-4.61,0.03-9.23,0.23-13.76,1.26
		c-12.56,2.84-20.91,10.28-24.62,22.71c-1.57,5.24-1.85,10.67-1.89,16.08c-0.09,13.51-0.08,27.01,0,40.52
		c0.03,4.55,0.23,9.11,1.25,13.57c3.08,13.47,11.29,21.91,24.77,25.13c5.52,1.32,11.17,1.35,16.79,1.43
		C88.21,160.35,94.06,160.28,99.91,160.28z"/>
	<path class="st1" d="M99.91,160.28c-5.85,0-11.7,0.07-17.54-0.02c-5.63-0.08-11.27-0.11-16.79-1.43
		c-13.47-3.23-21.69-11.66-24.77-25.13c-1.02-4.46-1.23-9.03-1.25-13.57c-0.08-13.51-0.09-27.01,0-40.52
		c0.04-5.41,0.32-10.83,1.89-16.08c3.72-12.43,12.06-19.87,24.62-22.71c4.53-1.03,9.15-1.23,13.76-1.26
		c13.35-0.08,26.71-0.09,40.06,0c5.32,0.04,10.64,0.29,15.82,1.75c12.79,3.62,20.44,12.06,23.28,24.94
		c1.19,5.38,1.24,10.87,1.27,16.35c0.07,11.51,0.07,23.02,0,34.52c-0.04,5.69-0.08,11.4-1.41,16.98
		c-3.23,13.59-11.74,21.86-25.34,24.89c-5.29,1.18-10.69,1.21-16.07,1.28C111.6,160.34,105.75,160.28,99.91,160.28z M50.06,99.91
		c0.06,0,0.11,0,0.17,0c0,4.43-0.07,8.86,0.02,13.29c0.11,5.99-0.08,12.02,1.1,17.94c1.75,8.76,6.85,14.51,15.56,16.9
		c3.74,1.02,7.59,1.28,11.43,1.3c14.37,0.06,28.74,0.08,43.11-0.02c3.18-0.02,6.41-0.31,9.54-0.89c8.85-1.65,14.67-6.79,17.07-15.58
		c1.05-3.86,1.28-7.84,1.3-11.8c0.06-14.09,0.06-28.18,0-42.27c-0.02-3.65-0.25-7.31-1.07-10.91c-1.4-6.12-4.59-10.97-10.15-14.06
		c-4.01-2.23-8.44-3.04-12.96-3.18c-6.73-0.21-13.47-0.37-20.21-0.38c-8.89-0.02-17.79,0.02-26.68,0.23
		c-3.52,0.08-7.08,0.41-10.52,1.12c-6.94,1.42-12.03,5.39-14.89,11.99c-1.52,3.52-2.15,7.25-2.26,11.05
		C50.37,83.05,50.23,91.48,50.06,99.91z"/>
	<path class="st0" d="M50.06,99.91c0.18-8.43,0.31-16.86,0.56-25.28c0.11-3.8,0.74-7.53,2.26-11.05c2.85-6.6,7.94-10.57,14.89-11.99
		c3.44-0.7,7.01-1.03,10.52-1.12c8.89-0.21,17.78-0.25,26.68-0.23c6.74,0.02,13.48,0.17,20.21,0.38c4.52,0.14,8.95,0.95,12.96,3.18
		c5.56,3.09,8.75,7.94,10.15,14.06c0.82,3.59,1.05,7.25,1.07,10.91c0.06,14.09,0.06,28.18,0,42.27c-0.02,3.96-0.25,7.94-1.3,11.8
		c-2.4,8.79-8.21,13.93-17.07,15.58c-3.13,0.58-6.35,0.87-9.54,0.89c-14.37,0.09-28.74,0.08-43.11,0.02
		c-3.84-0.02-7.69-0.27-11.43-1.3c-8.71-2.38-13.81-8.13-15.56-16.9c-1.18-5.92-0.99-11.94-1.1-17.94
		c-0.08-4.43-0.02-8.86-0.02-13.29C50.17,99.91,50.11,99.91,50.06,99.91z M68.85,99.88c0,17.13,13.86,31.05,30.94,31.06
		c17.24,0.01,31.14-13.84,31.15-31.04c0.01-17.19-13.88-31.04-31.13-31.05C82.72,68.84,68.85,82.74,68.85,99.88z M132.13,74.88
		c4.01,0.01,7.27-3.26,7.26-7.28c0-3.94-3.29-7.2-7.25-7.2c-3.97,0-7.22,3.22-7.27,7.19C124.83,71.57,128.12,74.87,132.13,74.88z"/>
	<path class="st1" d="M68.85,99.88c0-17.13,13.87-31.03,30.95-31.03c17.25,0,31.14,13.85,31.13,31.05
		c-0.01,17.2-13.91,31.05-31.15,31.04C82.71,130.92,68.84,117,68.85,99.88z M79.65,99.87c-0.02,11.12,9.01,20.18,20.17,20.22
		c11.2,0.05,20.24-8.96,20.27-20.19c0.03-11.13-8.97-20.19-20.15-20.25C88.81,79.59,79.67,88.69,79.65,99.87z"/>
	<path class="st1" d="M132.13,74.88c-4.01-0.01-7.29-3.31-7.25-7.3c0.04-3.97,3.3-7.19,7.27-7.19c3.97,0,7.25,3.26,7.25,7.2
		C139.39,71.62,136.14,74.89,132.13,74.88z"/>
	<path class="st0" d="M79.65,99.87c0.02-11.18,9.16-20.28,20.3-20.21c11.17,0.06,20.18,9.12,20.15,20.25
		c-0.03,11.23-9.07,20.24-20.27,20.19C88.66,120.05,79.62,110.99,79.65,99.87z"/>
</g>
</svg>
