<?xml version="1.0" encoding="utf-8"?>
<!-- Generator: Adobe Illustrator 24.2.3, SVG Export Plug-In . SVG Version: 6.00 Build 0)  -->
<svg version="1.1" id="Layer_1" xmlns="http://www.w3.org/2000/svg" xmlns:xlink="http://www.w3.org/1999/xlink" x="0px" y="0px"
	 viewBox="0 0 200 200" style="enable-background:new 0 0 200 200;" xml:space="preserve">
<style type="text/css">
	.st0{fill:#FFFFFF;}
	.st1{fill:#251C5F;}
</style>
<g>
	<circle class="st0" cx="100" cy="100" r="100"/>
	<path class="st1" d="M167.62,48.3c-1.94,6.85-6.14,11.88-12.22,16c5.91-0.68,11.07-2.29,16.15-4.27c0.11,0.16,0.23,0.32,0.34,0.47
		c-2.54,2.91-4.99,5.9-7.65,8.69c-1.72,1.8-3.67,3.39-5.66,4.9c-0.99,0.76-1.22,1.55-1.19,2.69c0.2,8.2-0.86,16.25-3.03,24.14
		c-2.55,9.3-6.52,17.95-11.89,25.98c-6.69,10.01-15.07,18.28-25.35,24.52c-9.71,5.89-20.26,9.49-31.55,11.01
		c-8.29,1.12-16.56,1.12-24.82-0.08c-8.97-1.3-17.51-3.99-25.58-8.12c-2.31-1.18-4.55-2.49-6.81-3.96
		c15.76,1.11,29.99-2.73,42.93-12.47c-13.54-1.31-22.58-8.01-27.53-20.73c4.44,0.68,8.49,0.66,12.55-0.49
		c-6.63-1.85-12.23-5.27-16.48-10.67c-4.25-5.4-6.42-11.55-6.42-18.74c4.14,1.97,8.24,3.47,13.12,3.54
		c-8.39-6.35-12.8-14.47-12.87-24.73c-0.04-5.13,1.34-9.93,3.99-14.63C53.73,70.17,73.89,80.5,98.61,82.25
		c-0.16-1.59-0.33-2.94-0.43-4.29c-0.77-10.24,2.91-18.65,10.59-25.33c9.91-8.62,25.97-9.05,36.42-1.04
		c0.51,0.39,1.14,0.68,1.51,1.17c1.67,2.26,3.71,2.57,6.23,1.54c4.22-1.73,8.49-3.32,12.73-5C166.33,49.03,166.96,48.64,167.62,48.3
		z"/>
</g>
</svg>
