<?xml version="1.0" encoding="UTF-8" standalone="no"?>
<!DOCTYPE svg PUBLIC "-//W3C//DTD SVG 1.1//EN" "http://www.w3.org/Graphics/SVG/1.1/DTD/svg11.dtd">
<svg width="100%" height="100%" viewBox="0 0 195 195" version="1.1" xmlns="http://www.w3.org/2000/svg" xmlns:xlink="http://www.w3.org/1999/xlink" xml:space="preserve" xmlns:serif="http://www.serif.com/" style="fill-rule:evenodd;clip-rule:evenodd;stroke-linejoin:round;stroke-miterlimit:2;">
    <g transform="matrix(1,0,0,1,-112.956,-10.6279)">
        <path d="M112.956,205.125C118.237,188.075 124.358,171.865 129.954,155.131C92.859,90.253 138.766,17.216 200.945,11.149C259.652,5.42 307.786,47.588 307.932,105.137C308.085,165.86 249.192,216.85 182.947,196.125C177.95,194.562 171.767,189.468 165.949,189.126C157.818,188.647 147.162,194.485 138.952,197.125C129.953,200.02 122.128,202.921 112.956,205.125ZM167.949,171.129C221.444,203.595 285.5,167.18 290.934,114.136C295.852,66.117 257.51,23.391 205.944,27.147C147.074,31.434 111.712,101.706 147.951,153.131C144.743,161.922 141.741,170.919 138.952,180.128C148.774,177.284 157.828,173.673 167.949,171.129Z"/>
        <path d="M138.953,180.128C141.742,170.919 144.744,161.922 147.952,153.131C111.712,101.706 147.075,31.434 205.945,27.147C257.511,23.391 295.853,66.117 290.935,114.136C285.501,167.179 221.445,203.594 167.95,171.129C157.828,173.673 148.774,177.284 138.953,180.128ZM165.95,95.139C174.528,119.265 210.076,151.942 235.941,153.132C248.201,153.696 262.696,147.336 261.937,130.135C254.555,124.852 246.045,120.697 236.941,117.137C232.583,121.444 229.158,126.685 223.942,130.135C208.257,123.156 196.225,112.525 188.947,97.139C203.278,89.323 194.574,71.913 188.947,60.143C166.714,53.444 160.86,80.824 165.95,95.139Z" style="fill:white;"/>
        <path d="M188.947,60.143C194.574,71.913 203.278,89.322 188.947,97.139C196.225,112.525 208.258,123.156 223.942,130.135C229.158,126.685 232.583,121.444 236.941,117.137C246.045,120.698 254.555,124.852 261.937,130.135C262.696,147.336 248.201,153.697 235.941,153.132C210.076,151.942 174.527,119.265 165.95,95.139C160.86,80.824 166.714,53.444 188.947,60.143Z"/>
    </g>
</svg>
