<?xml version="1.0" encoding="utf-8"?>
<!-- Generator: Adobe Illustrator 24.2.3, SVG Export Plug-In . SVG Version: 6.00 Build 0)  -->
<svg version="1.1" id="Layer_1" xmlns="http://www.w3.org/2000/svg" xmlns:xlink="http://www.w3.org/1999/xlink" x="0px" y="0px"
	 viewBox="0 0 200 200" style="enable-background:new 0 0 200 200;" xml:space="preserve">
<style type="text/css">
	.st0{fill:#FFFFFF;}
	.st1{fill:#251C5F;}
</style>
<g>
	<path class="st0" d="M200,100.02c-0.05,55.12-44.71,99.98-100.08,99.95c-55.23-0.03-100-44.78-99.96-100.06
		C0.01,44.65,44.8-0.01,99.99,0C155.39,0.01,199.99,44.93,200,100.02z M99.98,60.74c-12.29,0-24.57-0.01-36.86,0.01
		c-1.15,0-2.33,0.02-3.46,0.21c-6.73,1.12-11.76,4.68-15.01,10.68c-1.66,3.06-2.32,6.38-2.31,9.86c0.03,11.09,0.01,22.19,0.01,33.28
		c0,2.43-0.03,4.86,0.03,7.28c0.12,5.1,1.95,9.53,5.43,13.24c4.01,4.27,8.99,6.44,14.86,6.45c13.58,0.02,27.17,0.01,40.75,0.01
		c11.24,0,22.48-0.01,33.72,0.01c2.95,0,5.81-0.49,8.46-1.77c7.76-3.76,11.91-10,12.01-18.61c0.14-13.41,0.05-26.82,0.03-40.23
		c0-4.23-1.13-8.16-3.59-11.62c-4.08-5.72-9.66-8.74-16.7-8.78C124.89,60.7,112.43,60.74,99.98,60.74z"/>
	<path class="st1" d="M99.98,60.74c12.45,0,24.91-0.05,37.36,0.02c7.04,0.04,12.62,3.06,16.7,8.78c2.47,3.46,3.59,7.39,3.59,11.62
		c0.01,13.41,0.11,26.82-0.03,40.23c-0.09,8.61-4.24,14.85-12.01,18.61c-2.65,1.28-5.51,1.78-8.46,1.77
		c-11.24-0.01-22.48-0.01-33.72-0.01c-13.58,0-27.17,0.02-40.75-0.01c-5.87-0.01-10.85-2.18-14.86-6.45
		c-3.48-3.71-5.31-8.14-5.43-13.24c-0.06-2.43-0.02-4.86-0.03-7.28c0-11.09,0.02-22.19-0.01-33.28c-0.01-3.48,0.65-6.8,2.31-9.86
		c3.25-6,8.29-9.56,15.01-10.68c1.13-0.19,2.31-0.21,3.46-0.21C75.41,60.74,87.69,60.74,99.98,60.74z M87.93,85.14
		c-0.02,0.26-0.04,0.39-0.04,0.53c-0.05,10.44-0.09,20.89-0.14,31.33c0,0.02,0.03,0.04,0.05,0.06c0.02,0.02,0.05,0.02,0.12,0.06
		c10.07-5.37,20.16-10.74,30.39-16.2C108.1,95.62,98.05,90.4,87.93,85.14z"/>
	<path class="st0" d="M87.93,85.14c10.13,5.26,20.17,10.47,30.38,15.77c-10.23,5.46-20.33,10.83-30.39,16.2
		c-0.07-0.03-0.1-0.04-0.12-0.06c-0.02-0.01-0.05-0.04-0.05-0.06c0.04-10.44,0.09-20.89,0.14-31.33
		C87.88,85.54,87.9,85.4,87.93,85.14z"/>
</g>
</svg>
